Coordinates
version=1
nRows=14
nColumns=42
inDegrees=yes

Units are S.I. units (second, meters, Newtons, ...)
If the header above contains a line with 'inDegrees', this indicates whether rotational values are in degrees (yes) or radians (no).

endheader
time	pelvis_tilt	pelvis_list	pelvis_rotation	pelvis_tx	pelvis_ty	pelvis_tz	hip_flexion_r	hip_adduction_r	hip_rotation_r	knee_angle_r	knee_adduction_r	knee_angle_r_beta	ankle_angle_r	subtalar_angle_r	mtp_angle_r	hip_flexion_l	hip_adduction_l	hip_rotation_l	knee_angle_l	knee_adduction_l	knee_angle_l_beta	ankle_angle_l	subtalar_angle_l	mtp_angle_l	lumbar_extension	lumbar_bending	lumbar_rotation	arm_flex_r	arm_add_r	arm_rot_r	elbow_flex_r	pro_sup_r	wrist_flex_r	wrist_dev_r	arm_flex_l	arm_add_l	arm_rot_l	elbow_flex_l	pro_sup_l	wrist_flex_l	wrist_dev_l
      1.62000000	      8.92348478	     -3.59272337	     -2.19487557	      0.72876777	      0.87781238	     -0.23947878	      0.37572184	      8.32929035	      3.37597852	     27.29905284	     -2.21292162	      0.47645835	     19.47153477	      0.41104103	     -7.50391503	     -3.09935922	     -9.09923016	    -16.23023858	     68.25530503	     -9.10142644	      1.19127980	      1.51153439	    -14.94238680	     -7.50391503	    -19.58077801	      1.64331493	     -3.12520683	     -3.29164531	     -2.17235482	    -22.30002289	     37.42391853	     90.00000001	      0.00000000	      0.00000000	     -2.22382446	     -5.80904680	    -12.71469087	     44.13817103	     90.00000001	      0.00000000	      0.00000000
      1.63000000	      9.03501237	     -3.09794193	     -2.22877228	      0.73930503	      0.87950163	     -0.23797459	     -0.96831293	      7.89361256	      3.43526376	     26.36971217	     -2.38988257	      0.46023830	     19.59189623	      0.63057731	     -7.50384288	     -1.28330622	     -8.53730084	    -16.14284896	     69.24535011	     -9.51829538	      1.20855935	      2.83369702	    -14.64074325	     -7.50384288	    -19.72162939	      1.01627065	     -2.72535303	     -3.14720109	     -2.06651359	    -22.00419830	     38.13075861	     90.00000001	      0.00000000	      0.00000000	     -2.19949585	     -5.81983213	    -12.72755182	     43.98715564	     90.00000001	      0.00000000	      0.00000000
      1.64000000	      9.15590844	     -2.60331331	     -2.35793570	      0.74990569	      0.88108694	     -0.23644718	     -2.41806491	      7.41244560	      3.76212954	     25.24110598	     -2.44387584	      0.44054041	     19.78232246	      0.97505199	     -7.50376171	      0.40592101	     -7.97786227	    -15.96120023	     69.89247547	     -9.59803709	      1.21985382	      4.35265007	    -14.10072341	     -7.50376171	    -19.86083769	      0.37866981	     -2.19285867	     -3.16727060	     -2.02656535	    -21.52490073	     39.07419078	     90.00000001	      0.00000000	      0.00000000	     -2.15657249	     -5.79382126	    -12.76680487	     43.74750306	     90.00000001	      0.00000000	      0.00000000
      1.65000000	      9.61547475	     -2.26335487	     -2.57084785	      0.76066852	      0.88298647	     -0.23489856	     -4.47313039	      7.11853047	      4.58368082	     23.67429064	     -2.51809529	      0.41319432	     19.69534349	      0.78900115	     -7.50350990	      1.54839938	     -7.59806358	    -15.88943623	     70.08242202	     -9.52103873	      1.22316901	      6.06961751	    -12.81342263	     -7.50350990	    -20.35752906	     -0.12118267	     -1.53343145	     -3.36079212	     -2.24749155	    -20.10932902	     40.28302056	     90.00000001	      0.00000000	      0.00000000	     -2.12206804	     -5.72892791	    -12.92165615	     43.58997071	     90.00000001	      0.00000000	      0.00000000
      1.66000000	      9.49141249	     -1.80678569	     -2.75004510	      0.77102871	      0.88389991	     -0.23338855	     -5.53230822	      6.71456782	      4.56077622	     22.73390253	     -2.77188432	      0.39678145	     19.78578042	      1.06832328	     -7.50344763	      3.45148803	     -7.10096882	    -15.73716206	     70.22701327	     -9.38757710	      1.22569261	      7.30718584	    -12.54413195	     -7.50344763	    -20.22222072	     -0.70428187	     -0.96791592	     -3.28949827	     -2.20189934	    -19.92207700	     41.11877650	     90.00000001	      0.00000000	      0.00000000	     -2.15422189	     -5.71240844	    -12.97534458	     43.49546644	     90.00000001	      0.00000000	      0.00000000
      1.67000000	      9.42457539	     -1.38388034	     -2.91193068	      0.78141775	      0.88469374	     -0.23208358	     -6.74734775	      6.28022773	      4.76258036	     21.57921127	     -2.87455956	      0.37662829	     19.95116380	      1.51332841	     -7.50338081	      5.20082590	     -6.61481557	    -15.41726765	     70.05031693	     -9.01417166	      1.22260867	      8.69969107	    -12.23783572	     -7.50338081	    -20.14489655	     -1.21093441	     -0.40203007	     -3.32620357	     -2.24008330	    -19.57293565	     42.18268533	     90.00000001	      0.00000000	      0.00000000	     -2.18272319	     -5.66898745	    -13.07838133	     43.33205748	     90.00000001	      0.00000000	      0.00000000
      1.68000000	      9.41720876	     -1.03887578	     -3.09264238	      0.79192840	      0.88532433	     -0.23079052	     -8.05454651	      5.92048316	      4.91255537	     20.38249062	     -3.00041021	      0.35574157	     20.06485455	      1.95950400	     -7.50331218	      6.79093808	     -6.21583252	    -15.04319935	     69.59265947	     -8.47614883	      1.21462104	      9.92446723	    -12.00021363	     -7.50331218	    -20.10918883	     -1.63621756	      0.17905886	     -3.38377176	     -2.33443572	    -19.09807964	     43.25706499	     90.00000001	      0.00000000	      0.00000000	     -2.23200657	     -5.61903537	    -13.22399394	     43.19939675	     90.00000001	      0.00000000	      0.00000000
      1.69000000	      9.41307499	     -0.74972412	     -3.23182234	      0.80243167	      0.88574774	     -0.22960300	     -9.40068919	      5.62199571	      5.04520311	     19.09665920	     -3.14290680	      0.33329958	     20.13280163	      2.44688934	     -7.50324248	      8.31296074	     -5.86836526	    -14.60546830	     68.85029394	     -7.83535332	      1.20166432	     11.00649026	    -11.96851018	     -7.50324248	    -20.07764244	     -1.98081968	      0.70663083	     -3.43368753	     -2.47842637	    -18.56026013	     44.36634837	     90.00000001	      0.00000000	      0.00000000	     -2.30387900	     -5.55822963	    -13.40092902	     43.09104224	     90.00000001	      0.00000000	      0.00000000
      1.70000000	      9.47844904	     -0.54185061	     -3.33893195	      0.81308126	      0.88605756	     -0.22850322	    -10.89600724	      5.38170497	      5.20843444	     17.67152760	     -3.22527818	      0.30842634	     20.15165592	      2.99612262	     -7.50316163	      9.64217449	     -5.58899225	    -14.01372897	     67.76909402	     -7.00559149	      1.18279382	     11.81899573	    -12.18778793	     -7.50316163	    -20.10347525	     -2.20967125	      1.20126096	     -3.49422326	     -2.66285631	    -17.91557024	     45.48296155	     90.00000001	      0.00000000	      0.00000000	     -2.42555440	     -5.46524810	    -13.62391259	     42.98741449	     90.00000001	      0.00000000	      0.00000000
      1.71000000	      9.71385107	     -0.36118783	     -3.42747269	      0.82387069	      0.88641854	     -0.22745955	    -12.67996794	      5.17117684	      5.43942131	     16.06514278	     -3.32427129	      0.28038964	     19.92152966	      3.12864597	     -7.50298201	     10.65044225	     -5.30882022	    -13.31858005	     66.33286659	     -5.98902540	      1.15772692	     12.11791459	    -12.91422679	     -7.50298201	    -20.31217193	     -2.42038570	      1.61782739	     -3.49946675	     -2.93921591	    -17.11377379	     46.43216248	     90.00000001	      0.00000000	      0.00000000	     -2.61204921	     -5.38302826	    -13.93978048	     42.99928517	     90.00000001	      0.00000000	      0.00000000
      1.72000000	      9.46584200	     -0.25466389	     -3.45782346	      0.83436504	      0.88589110	     -0.22646392	    -13.72038671	      5.09393821	      5.25350825	     14.86206048	     -3.48584622	      0.25939189	     19.95296455	      3.80091658	     -7.50290707	     12.23692947	     -5.13329835	    -12.83585978	     64.80166823	     -5.23515028	      1.13100247	     12.68492913	    -13.18582760	     -7.50290707	    -20.02597544	     -2.49166006	      2.01712728	     -3.47136254	     -3.06128432	    -16.88052098	     47.39528053	     90.00000001	      0.00000000	      0.00000000	     -2.77895973	     -5.32983847	    -14.08024484	     42.88406420	     90.00000001	      0.00000000	      0.00000000
      1.73000000	      9.45474993	     -0.17463298	     -3.46501952	      0.84509459	      0.88549834	     -0.22552035	    -15.11698514	      5.01798208	      4.95513975	     13.45563800	     -3.64048024	      0.23484519	     19.88971408	      4.71578372	     -7.50283013	     13.38248063	     -4.93615295	    -12.14390308	     62.88908723	     -4.23033388	      1.09762164	     12.92515789	    -13.68648525	     -7.50283013	    -19.97658465	     -2.53569790	      2.34922398	     -3.40770977	     -3.23469499	    -16.50901711	     48.30303756	     90.00000001	      0.00000000	      0.00000000	     -2.97924859	     -5.27685345	    -14.29960691	     42.79337061	     90.00000001	      0.00000000	      0.00000000
      1.74000000	      9.62909657	     -0.04531599	     -3.45707551	      0.85588023	      0.88519121	     -0.22473237	    -16.69269328	      4.83129021	      4.51348709	     12.10606733	     -3.66774543	      0.21129073	     19.81269699	      5.61373624	     -7.50271645	     14.15697158	     -4.65534757	    -11.48428322	     60.55844964	     -3.13494479	      1.05694434	     12.77289502	    -14.32604925	     -7.50271645	    -20.13675738	     -2.62717762	      2.57400518	     -3.25174309	     -3.42877845	    -16.05450993	     49.03001626	     90.00000001	      0.00000000	      0.00000000	     -3.22814310	     -5.20566832	    -14.57719889	     42.81754449	     90.00000001	      0.00000000	      0.00000000
      1.75000000	      9.52549389	     -0.02238868	     -3.38357134	      0.86656259	      0.88432017	     -0.22398295	    -17.90534926	      4.81502229	      4.00199628	     10.87720137	     -3.71492877	      0.18984298	     19.73707468	      6.59077744	     -7.50263704	     15.20133783	     -4.47831313	    -10.99625874	     58.07198071	     -2.24410273	      1.01354727	     12.85767190	    -14.52391470	     -7.50263704	    -20.00791129	     -2.56174797	      2.76543896	     -3.12623063	     -3.57622884	    -15.78524076	     49.81487349	     90.00000001	      0.00000000	      0.00000000	     -3.45310100	     -5.14662507	    -14.78167243	     42.68254224	     90.00000001	      0.00000000	      0.00000000
